<?xml version="1.0" encoding="UTF-8" standalone="no"?>
<!DOCTYPE svg PUBLIC "-//W3C//DTD SVG 1.1//EN"
 "http://www.w3.org/Graphics/SVG/1.1/DTD/svg11.dtd">
<!-- Generated by graphviz version 2.38.0 (20140413.2041)
 -->
<!-- Title: G Pages: 1 -->
<svg width="317pt" height="111pt"
 viewBox="0.00 0.00 317.00 111.00" xmlns="http://www.w3.org/2000/svg" xmlns:xlink="http://www.w3.org/1999/xlink">
<g id="graph0" class="graph" transform="scale(1 1) rotate(0) translate(4 107)">
<title>G</title>
<polygon fill="none" stroke="none" points="-4,4 -4,-107 313,-107 313,4 -4,4"/>
<!-- I -->
<!-- 0 -->
<g id="node2" class="node"><title>0</title>
<ellipse fill="#fdedd3" stroke="black" cx="60" cy="-22" rx="18" ry="18"/>
<ellipse fill="none" stroke="black" cx="60" cy="-22" rx="22" ry="22"/>
<text text-anchor="middle" x="60" y="-18.3" font-family="Lato" font-size="14.00">0</text>
</g>
<!-- I&#45;&gt;0 -->
<g id="edge1" class="edge"><title>I&#45;&gt;0</title>
<path fill="none" stroke="black" d="M1.16638,-22C2.84121,-22 16.884,-22 30.7112,-22"/>
<polygon fill="black" stroke="black" points="37.8555,-22 30.8556,-25.1501 34.3555,-22 30.8555,-22.0001 30.8555,-22.0001 30.8555,-22.0001 34.3555,-22 30.8555,-18.8501 37.8555,-22 37.8555,-22"/>
</g>
<!-- 0&#45;&gt;0 -->
<g id="edge2" class="edge"><title>0&#45;&gt;0</title>
<path fill="none" stroke="black" d="M52.6831,-42.9908C51.7798,-53.0872 54.2188,-62 60,-62 64.3359,-62 66.7918,-56.9866 67.3677,-50.2204"/>
<polygon fill="black" stroke="black" points="67.3169,-42.9908 70.5161,-49.9684 67.3415,-46.4907 67.3662,-49.9906 67.3662,-49.9906 67.3662,-49.9906 67.3415,-46.4907 64.2163,-50.0128 67.3169,-42.9908 67.3169,-42.9908"/>
<text text-anchor="start" x="54" y="-65.8" font-family="Lato" font-size="14.00">!e</text>
</g>
<!-- 1 -->
<g id="node3" class="node"><title>1</title>
<ellipse fill="#fdedd3" stroke="black" cx="162" cy="-52" rx="18" ry="18"/>
<text text-anchor="middle" x="162" y="-48.3" font-family="Lato" font-size="14.00">1</text>
</g>
<!-- 0&#45;&gt;1 -->
<g id="edge3" class="edge"><title>0&#45;&gt;1</title>
<path fill="none" stroke="black" d="M81.2365,-28.0709C97.516,-32.9548 120.414,-39.8242 137.503,-44.9508"/>
<polygon fill="black" stroke="black" points="144.434,-47.0303 136.824,-48.036 141.082,-46.0246 137.73,-45.0188 137.73,-45.0188 137.73,-45.0188 141.082,-46.0246 138.635,-42.0017 144.434,-47.0303 144.434,-47.0303"/>
<text text-anchor="start" x="100" y="-40.8" font-family="Lato" font-size="14.00">!e</text>
</g>
<!-- 2 -->
<g id="node4" class="node"><title>2</title>
<ellipse fill="#fdedd3" stroke="black" cx="287" cy="-22" rx="18" ry="18"/>
<ellipse fill="none" stroke="black" cx="287" cy="-22" rx="22" ry="22"/>
<text text-anchor="middle" x="287" y="-18.3" font-family="Lato" font-size="14.00">2</text>
</g>
<!-- 0&#45;&gt;2 -->
<g id="edge4" class="edge"><title>0&#45;&gt;2</title>
<path fill="none" stroke="black" d="M81.7122,-17.4377C95.3522,-14.6714 113.646,-11.4115 130,-10 174.847,-6.12931 227.001,-12.2981 258.21,-17.1308"/>
<polygon fill="black" stroke="black" points="265.298,-18.2614 257.889,-20.2693 261.842,-17.71 258.385,-17.1586 258.385,-17.1586 258.385,-17.1586 261.842,-17.71 258.882,-14.0479 265.298,-18.2614 265.298,-18.2614"/>
<text text-anchor="start" x="130" y="-13.8" font-family="Lato" font-size="14.00">!e &amp; !g &amp; r</text>
</g>
<!-- 1&#45;&gt;1 -->
<g id="edge5" class="edge"><title>1&#45;&gt;1</title>
<path fill="none" stroke="black" d="M152.425,-67.5414C149.73,-77.9087 152.922,-88 162,-88 168.95,-88 172.45,-82.0847 172.499,-74.6591"/>
<polygon fill="black" stroke="black" points="171.575,-67.5414 175.6,-74.0771 172.026,-71.0123 172.477,-74.4831 172.477,-74.4831 172.477,-74.4831 172.026,-71.0123 169.353,-74.889 171.575,-67.5414 171.575,-67.5414"/>
<text text-anchor="middle" x="162" y="-91.8" font-family="Lato" font-size="14.00">1</text>
</g>
<!-- 1&#45;&gt;2 -->
<g id="edge6" class="edge"><title>1&#45;&gt;2</title>
<path fill="none" stroke="black" d="M179.588,-47.9541C199.761,-43.0339 234.109,-34.6565 258.315,-28.7525"/>
<polygon fill="black" stroke="black" points="265.163,-27.0822 259.109,-31.8013 261.763,-27.9116 258.362,-28.741 258.362,-28.741 258.362,-28.741 261.763,-27.9116 257.616,-25.6807 265.163,-27.0822 265.163,-27.0822"/>
<text text-anchor="start" x="212" y="-42.8" font-family="Lato" font-size="14.00">!g &amp; r</text>
</g>
<!-- 2&#45;&gt;2 -->
<g id="edge7" class="edge"><title>2&#45;&gt;2</title>
<path fill="none" stroke="black" d="M276.933,-41.7575C275.223,-52.3499 278.578,-62 287,-62 293.448,-62 296.926,-56.3433 297.435,-48.9379"/>
<polygon fill="black" stroke="black" points="297.067,-41.7575 300.571,-48.5871 297.246,-45.2529 297.425,-48.7483 297.425,-48.7483 297.425,-48.7483 297.246,-45.2529 294.279,-48.9095 297.067,-41.7575 297.067,-41.7575"/>
<text text-anchor="start" x="281" y="-65.8" font-family="Lato" font-size="14.00">!g</text>
</g>
</g>
</svg>
