<?xml version="1.0" encoding="UTF-8" standalone="no"?>
<!DOCTYPE svg PUBLIC "-//W3C//DTD SVG 1.1//EN"
 "http://www.w3.org/Graphics/SVG/1.1/DTD/svg11.dtd">
<!-- Generated by graphviz version 2.38.0 (20140413.2041)
 -->
<!-- Title: G Pages: 1 -->
<svg width="173pt" height="85pt"
 viewBox="0.00 0.00 173.00 85.00" xmlns="http://www.w3.org/2000/svg" xmlns:xlink="http://www.w3.org/1999/xlink">
<g id="graph0" class="graph" transform="scale(1 1) rotate(0) translate(4 81)">
<title>G</title>
<polygon fill="none" stroke="none" points="-4,4 -4,-81 169,-81 169,4 -4,4"/>
<!-- I -->
<!-- 0 -->
<g id="node2" class="node"><title>0</title>
<ellipse fill="#fdedd3" stroke="black" cx="56" cy="-22" rx="18" ry="18"/>
<text text-anchor="middle" x="56" y="-18.3" font-family="Lato" font-size="14.00">0</text>
</g>
<!-- I&#45;&gt;0 -->
<g id="edge1" class="edge"><title>I&#45;&gt;0</title>
<path fill="none" stroke="black" d="M1.15491,-22C2.79388,-22 17.1543,-22 30.6317,-22"/>
<polygon fill="black" stroke="black" points="37.9419,-22 30.9419,-25.1501 34.4419,-22 30.9419,-22.0001 30.9419,-22.0001 30.9419,-22.0001 34.4419,-22 30.9418,-18.8501 37.9419,-22 37.9419,-22"/>
</g>
<!-- 0&#45;&gt;0 -->
<g id="edge2" class="edge"><title>0&#45;&gt;0</title>
<path fill="none" stroke="black" d="M49.6208,-39.0373C48.3189,-48.8579 50.4453,-58 56,-58 60.166,-58 62.4036,-52.8576 62.7128,-46.1433"/>
<polygon fill="black" stroke="black" points="62.3792,-39.0373 65.8541,-45.8818 62.5434,-42.5335 62.7076,-46.0296 62.7076,-46.0296 62.7076,-46.0296 62.5434,-42.5335 59.561,-46.1774 62.3792,-39.0373 62.3792,-39.0373"/>
<text text-anchor="start" x="50.5" y="-61.8" font-family="Lato" font-size="14.00">!c</text>
</g>
<!-- 1 -->
<g id="node3" class="node"><title>1</title>
<ellipse fill="#fdedd3" stroke="black" cx="143" cy="-22" rx="18" ry="18"/>
<ellipse fill="none" stroke="black" cx="143" cy="-22" rx="22" ry="22"/>
<text text-anchor="middle" x="143" y="-18.3" font-family="Lato" font-size="14.00">1</text>
</g>
<!-- 0&#45;&gt;1 -->
<g id="edge3" class="edge"><title>0&#45;&gt;1</title>
<path fill="none" stroke="black" d="M74.201,-22C85.5797,-22 100.762,-22 113.875,-22"/>
<polygon fill="black" stroke="black" points="120.91,-22 113.91,-25.1501 117.41,-22 113.91,-22.0001 113.91,-22.0001 113.91,-22.0001 117.41,-22 113.91,-18.8501 120.91,-22 120.91,-22"/>
<text text-anchor="start" x="94" y="-25.8" font-family="Lato" font-size="14.00">c</text>
</g>
<!-- 1&#45;&gt;0 -->
<g id="edge4" class="edge"><title>1&#45;&gt;0</title>
<path fill="none" stroke="black" d="M124.269,-9.54066C114.851,-4.39614 102.981,-0.211717 92,-3 87.1374,-4.23476 82.2193,-6.29604 77.668,-8.6161"/>
<polygon fill="black" stroke="black" points="71.3113,-12.1343 75.9105,-5.98848 74.3736,-10.4394 77.4359,-8.74453 77.4359,-8.74453 77.4359,-8.74453 74.3736,-10.4394 78.9613,-11.5006 71.3113,-12.1343 71.3113,-12.1343"/>
<text text-anchor="start" x="92" y="-6.8" font-family="Lato" font-size="14.00">!c</text>
</g>
<!-- 1&#45;&gt;1 -->
<g id="edge5" class="edge"><title>1&#45;&gt;1</title>
<path fill="none" stroke="black" d="M134.994,-42.5808C133.886,-52.8447 136.555,-62 143,-62 147.834,-62 150.544,-56.8502 151.129,-49.9451"/>
<polygon fill="black" stroke="black" points="151.006,-42.5808 154.273,-49.5273 151.065,-46.0803 151.123,-49.5798 151.123,-49.5798 151.123,-49.5798 151.065,-46.0803 147.973,-49.6324 151.006,-42.5808 151.006,-42.5808"/>
<text text-anchor="start" x="139.5" y="-65.8" font-family="Lato" font-size="14.00">c</text>
</g>
</g>
</svg>
